<svg xmlns="http://www.w3.org/2000/svg" xmlns:xlink="http://www.w3.org/1999/xlink" version="1.1" x="0px" y="0px" viewBox="0 0 512 512" xml:space="preserve">
<g>
<path d="M256,119.6c-75.2,0-136.3,61.1-136.3,136.3c0,75.1,61.2,136.3,136.3,136.3S392.3,331,392.3,255.8   C392.3,180.7,331.2,119.6,256,119.6z M256,368.1c-61.9,0-112.3-50.4-112.3-112.3c0-61.9,50.4-112.3,112.3-112.3   s112.3,50.4,112.3,112.3C368.3,317.7,317.9,368.1,256,368.1z"/>
<path d="M483.7,211.1l-48.6-15.5l-9.6-23.3l23.4-45.4c2.4-4.6,1.5-10.3-2.2-14l-15-15   C420.8,87,410,76.1,399.1,65.3c-3.7-3.7-9.3-4.6-14-2.2l-45.3,23.4l-23.3-9.7L301,28.3c-1.6-5-6.2-8.3-11.4-8.3h-67   c-5.2,0-9.8,3.3-11.4,8.3l-15.5,48.6l-23.3,9.7l-45.4-23.4c-4.6-2.4-10.3-1.5-14,2.2l-47.5,47.5c-3.7,3.7-4.6,9.3-2.2,14l23.4,45.4   l-9.7,23.4l-48.6,15.5c-5,1.6-8.3,6.2-8.3,11.4v67.1c0,5.2,3.4,9.8,8.3,11.4l48.6,15.5l9.7,23.4l-23.4,45.4   c-2.4,4.6-1.5,10.3,2.2,14l47.5,47.5c3.7,3.7,9.3,4.6,14,2.2l45.4-23.4l23.3,9.7l15.5,48.5c1.6,5,6.2,8.3,11.4,8.3h67   c5.2,0,9.8-3.3,11.4-8.3l15.5-48.5l23.3-9.7l45.3,23.4c4.6,2.4,10.3,1.5,14-2.2l47.5-47.5c3.7-3.7,4.6-9.3,2.2-14l-23.4-45.4   l9.6-23.3l48.6-15.5c5-1.6,8.3-6.2,8.3-11.4v-67C492,217.3,488.6,212.7,483.7,211.1z M468,280.8l-43.3,13.9   c-4.8,1.5-8.6,5.1-10.6,9.7L402,333.7c-1.9,4.6-1.7,9.8,0.6,14.3l20.8,40.5l-35.1,35.1l-40.4-20.9c-4.5-2.3-9.7-2.5-14.4-0.6   l-29.3,12.1c-4.6,1.9-8.2,5.7-9.7,10.5L280.8,468h-49.5l-13.9-43.2c-1.5-4.8-5.1-8.6-9.7-10.5l-29.2-12.1   c-4.6-1.9-9.9-1.7-14.4,0.6l-40.5,20.9l-35.1-35.1l20.8-40.5c2.3-4.5,2.5-9.7,0.6-14.3l-12.1-29.3c-1.9-4.6-5.7-8.2-10.5-9.7   L44,280.8v-49.5l43.3-13.8c4.8-1.5,8.6-5.1,10.5-9.7l12.1-29.3c1.9-4.6,1.7-9.9-0.6-14.3l-20.8-40.5l35.1-35.1l40.4,20.9   c4.5,2.3,9.8,2.5,14.4,0.6l29.2-12.1c4.6-1.9,8.2-5.7,9.7-10.5L231.2,44h49.5l13.8,43.3c1.5,4.8,5.1,8.6,9.7,10.6l29.3,12.1   c4.6,1.9,9.9,1.7,14.4-0.6l40.4-20.9c8.8,8.8,17.6,17.6,26.3,26.3l8.8,8.8l-20.8,40.5c-2.3,4.5-2.5,9.7-0.6,14.3l12.1,29.3   c1.9,4.7,5.8,8.2,10.6,9.7l43.3,13.9V280.8z"/>
<path d="M256,190.5c-36,0-65.3,29.3-65.3,65.3c0,36,29.3,65.3,65.3,65.3s65.3-29.3,65.3-65.3   C321.3,219.8,292,190.5,256,190.5z M256,297.1c-22.8,0-41.3-18.5-41.3-41.3c0-22.8,18.5-41.3,41.3-41.3s41.3,18.5,41.3,41.3   C297.3,278.6,278.8,297.1,256,297.1z"/>
</g>
</svg>